<svg xmlns="http://www.w3.org/2000/svg" width="72" height="72"><path style="stroke:none;fill-rule:nonzero;fill:#25d366;fill-opacity:1" d="M70.883 72H1.117C.5 72 0 71.398 0 70.66V1.34C0 .602.5 0 1.117 0h69.766C71.5 0 72 .602 72 1.34v69.32c0 .738-.5 1.34-1.117 1.34Zm0 0"/><path style="stroke:none;fill-rule:evenodd;fill:#fff;fill-opacity:1" d="M45.77 40.54c-.528-.267-3.133-1.548-3.622-1.724-.484-.18-.84-.265-1.191.262-.352.531-1.367 1.727-1.68 2.078-.308.356-.617.399-1.144.133-.531-.266-2.238-.824-4.262-2.629-1.578-1.406-2.64-3.14-2.95-3.672-.308-.531-.034-.816.231-1.082.239-.234.532-.617.797-.926.266-.312.352-.53.531-.886.176-.352.086-.66-.046-.926-.133-.266-1.192-2.875-1.633-3.938-.43-1.03-.867-.89-1.192-.906-.308-.015-.664-.02-1.015-.02-.356 0-.93.134-1.414.665-.485.527-1.856 1.812-1.856 4.418 0 2.61 1.899 5.129 2.164 5.484.266.352 3.739 5.703 9.055 8 1.262.547 2.25.871 3.02 1.117 1.269.403 2.425.344 3.335.207 1.02-.148 3.137-1.28 3.579-2.52.441-1.234.441-2.296.308-2.519-.133-.218-.484-.351-1.015-.617Zm-9.668 13.202h-.008a17.634 17.634 0 0 1-8.973-2.457l-.64-.383-6.672 1.75 1.78-6.504-.421-.668a17.63 17.63 0 0 1-2.695-9.382c.004-9.72 7.914-17.625 17.636-17.625a17.518 17.518 0 0 1 12.461 5.172 17.498 17.498 0 0 1 5.157 12.468c-.004 9.719-7.91 17.63-17.625 17.63Zm15-32.633c-4.004-4.007-9.329-6.214-15-6.218-11.692 0-21.204 9.515-21.207 21.207a21.14 21.14 0 0 0 2.828 10.601l-3.008 10.992 11.242-2.949a21.2 21.2 0 0 0 10.137 2.578h.008c11.687 0 21.203-9.511 21.207-21.207a21.069 21.069 0 0 0-6.207-15.004"/></svg>